<svg width="163" height="234" viewBox="0 0 163 234" fill="none" xmlns="http://www.w3.org/2000/svg">
<path d="M168.014 61.4288C177.283 49.6075 183.78 39.6364 187.642 32.5738L187.642 32.5736C189.668 28.8677 194.316 27.293 198.215 29.2542L198.216 29.2549L236.132 48.3407L236.133 48.3409C239.939 50.2576 241.696 54.9859 239.556 58.989C220.124 95.3491 160.876 170.432 57.4174 227.75L57.4165 227.751C53.8023 229.752 49.1966 228.64 46.936 225.116L46.9359 225.116L23.9102 189.214C23.9101 189.214 23.91 189.214 23.9099 189.214C21.6468 185.686 22.5671 181.102 25.8013 178.64L168.014 61.4288ZM168.014 61.4288C170.458 48.933 171.778 35.956 171.648 22.5909C171.612 18.8916 169.006 15.8005 165.495 15.0144L165.493 15.014L124.15 5.77473C124.149 5.77458 124.149 5.7744 124.148 5.77425C120.608 4.98242 117.03 6.69452 115.379 9.85365C108.94 22.1732 96.0454 42.2692 77.8245 62.5346C59.1703 83.2818 36.1477 102.85 10.2656 114.936L10.2647 114.936C6.41091 116.736 4.56277 121.328 6.36161 125.344L6.3619 125.345L23.679 163.986L23.679 163.986C25.4547 167.948 30.1424 169.769 34.1492 167.92L168.014 61.4288ZM43.6211 163.264C37.0975 169.505 30.9985 174.681 25.8022 178.639L43.6211 163.264ZM43.6211 163.264C40.5156 164.885 37.3582 166.44 34.1497 167.92L43.6211 163.264Z" fill="#FFA400" stroke="white" stroke-width="9.70252"/>
</svg>
