<svg width="174" height="230" viewBox="0 0 174 230" fill="none" xmlns="http://www.w3.org/2000/svg">
<path d="M-3.85074 77.0841C-16.1235 68.4219 -26.4091 62.4341 -33.6571 58.9333L-33.6573 58.9332C-37.4604 57.0962 -39.267 52.5335 -37.5045 48.5408L-37.504 48.5395L-20.3505 9.71071L-20.3503 9.7102C-18.6277 5.81207 -13.9938 3.81943 -9.88803 5.75494C27.4039 23.3327 105.373 78.7273 167.826 179.17L167.827 179.171C170.007 182.679 169.129 187.335 165.722 189.77L165.722 189.771L131.025 214.574C131.025 214.574 131.025 214.574 131.025 214.574C127.615 217.012 122.991 216.323 120.369 213.217L-3.85074 77.0841ZM-3.85074 77.0841C-16.4537 75.2722 -29.4808 74.6071 -42.8224 75.409C-46.5152 75.631 -49.4712 78.3894 -50.0796 81.9354L-50.08 81.9373L-57.2268 123.693C-57.2269 123.694 -57.227 123.695 -57.2271 123.695C-57.8398 127.271 -55.9498 130.758 -52.7116 132.248C-40.0836 138.059 -19.3641 149.925 1.79261 167.103C23.4524 184.69 44.1547 206.698 57.5272 231.939L57.5277 231.94C59.5197 235.699 64.199 237.313 68.1189 235.315L68.1196 235.314L105.84 216.074L105.841 216.074C109.708 214.102 111.291 209.328 109.243 205.42L-3.85074 77.0841ZM104.116 196.194C110.677 202.395 116.154 208.226 120.368 213.216L104.116 196.194ZM104.116 196.194C105.891 199.214 107.603 202.289 109.243 205.419L104.116 196.194Z" fill="#FFA400" stroke="white" stroke-width="9.70252"/>
</svg>
