<svg width="80" height="80" viewBox="0 0 80 80" fill="none" xmlns="http://www.w3.org/2000/svg">
<rect width="80" height="80" rx="40" fill="#753FF6"/>
<path d="M40 43.1111C42.6314 43.1111 44.7646 45.2443 44.7646 47.8757V56.5612H35.2354V47.8757C35.2354 45.2443 37.3686 43.1111 40 43.1111Z" fill="#C099FF"/>
<path d="M22.1429 44.2005L37.836 25.9965C38.9757 24.6743 41.0243 24.6743 42.164 25.9965L57.8571 44.2005" stroke="#44258F" stroke-width="2.85714" stroke-linecap="round" stroke-linejoin="round"/>
<path fill-rule="evenodd" clip-rule="evenodd" d="M37.8319 25.9648L27.6373 37.8419L27.0549 41.996C26.5302 45.7394 26.5559 49.5393 27.1312 53.2753C27.4224 55.1659 29.0491 56.5613 30.9619 56.5613H49.0377C50.9506 56.5613 52.5774 55.1659 52.8686 53.2753C53.4437 49.5393 53.4694 45.7394 52.9449 41.996L52.3626 37.8419L42.1679 25.9648C41.0277 24.6364 38.972 24.6364 37.8319 25.9648ZM44.7645 47.8757C44.7645 45.2442 42.6313 43.1111 39.9999 43.1111C37.3685 43.1111 35.2353 45.2442 35.2353 47.8757V56.561H44.7645V47.8757Z" fill="#C099FF"/>
<path d="M27.6372 37.8419L37.8318 25.9648C38.972 24.6364 41.0277 24.6364 42.1679 25.9648L52.3626 37.8419L52.9448 41.996C53.4694 45.7394 53.4437 49.5395 52.8686 53.2755C52.5774 55.166 50.9506 56.5615 49.0377 56.5615H30.9619C29.0491 56.5615 27.4223 55.166 27.1312 53.2755C26.5559 49.5395 26.5302 45.7394 27.0549 41.996L27.6372 37.8419Z" stroke="#44258F" stroke-width="2.85714" stroke-linejoin="round"/>
<path d="M40 43.1111C42.6314 43.1111 44.7646 45.2443 44.7646 47.8757V56.5612H35.2354V47.8757C35.2354 45.2443 37.3686 43.1111 40 43.1111Z" stroke="#44258F" stroke-width="2.85714" stroke-linecap="round" stroke-linejoin="round"/>
</svg>
