<svg width="129" height="25" viewBox="0 0 129 25" fill="none" xmlns="http://www.w3.org/2000/svg">
<path d="M7.232 5.608C5.768 5.608 4.52 6.088 3.8 7.096V1.12H0.2V19H3.8V11.32C3.8 9.832 4.784 8.848 6.2 8.848C7.616 8.848 8.6 9.832 8.6 11.32V19H12.2V10.552C12.2 7.576 10.184 5.608 7.232 5.608ZM20.4043 19.288C24.2923 19.288 27.4123 16.408 27.4123 12.448C27.4123 8.488 24.2923 5.608 20.4043 5.608C16.5163 5.608 13.3963 8.488 13.3963 12.448C13.3963 16.408 16.5163 19.288 20.4043 19.288ZM20.4043 16.048C18.4363 16.048 17.1163 14.56 17.1163 12.448C17.1163 10.36 18.4363 8.848 20.4043 8.848C22.3723 8.848 23.6923 10.36 23.6923 12.448C23.6923 14.56 22.3723 16.048 20.4043 16.048ZM43.5408 5.608C41.7648 5.608 40.3008 6.424 39.5568 7.624C38.7168 6.304 37.3248 5.608 35.6448 5.608C34.0608 5.608 32.8368 6.232 32.2128 7.48V5.896H28.8528V19H32.4528V11.344C32.4528 9.736 33.3168 8.848 34.5888 8.848C35.8608 8.848 36.7248 9.736 36.7248 11.344V19H40.3248V11.344C40.3248 9.736 41.1888 8.848 42.4608 8.848C43.7328 8.848 44.5968 9.736 44.5968 11.344V19H48.1968V10.576C48.1968 7.552 46.2768 5.608 43.5408 5.608ZM62.5364 12.064C62.5364 8.44 59.7044 5.608 56.0324 5.608C52.2884 5.608 49.4084 8.512 49.4084 12.424C49.4084 16.216 52.1204 19.288 56.2724 19.288C58.9604 19.288 61.1204 18.016 61.9124 16.096L59.0324 14.728C58.5284 15.616 57.5924 16.168 56.3204 16.168C54.5444 16.168 53.3684 15.112 53.1524 13.456H62.3684C62.4884 13.096 62.5364 12.592 62.5364 12.064ZM53.2244 10.816C53.5844 9.304 54.6164 8.488 56.0324 8.488C57.5204 8.488 58.5764 9.424 58.7204 10.816H53.2244ZM64.772 19H68.372V9.016H71.204V5.896H68.372V5.512C68.372 4.36 69.092 3.76 70.436 3.76C70.676 3.76 70.916 3.784 71.228 3.832V0.759999C70.892 0.688 70.364 0.639999 69.956 0.639999C66.692 0.639999 64.772 2.416 64.772 5.512V5.896H62.54V9.016H64.772V19ZM72.668 4.72H76.268V1.12H72.668V4.72ZM72.668 19H76.268V5.896H72.668V19ZM78.4297 19H82.0297V1.12H78.4297V19ZM84.1897 19H87.7897V1.12H84.1897V19ZM99.6457 5.896V7.288C98.7337 6.232 97.3897 5.608 95.6857 5.608C92.3497 5.608 89.2297 7.984 89.2297 11.944C89.2297 15.808 92.2057 18.352 95.7577 18.352C97.2217 18.352 98.4937 17.896 99.4057 17.032V18.304C99.4057 20.008 98.0617 21.088 96.2617 21.088C94.6777 21.088 93.5737 20.248 93.1657 18.832L90.0937 20.344C90.8617 22.744 93.2617 24.328 96.2617 24.328C99.9097 24.328 103.006 21.976 103.006 18.304V5.896H99.6457ZM96.2137 15.088C94.3657 15.088 92.9497 13.816 92.9497 11.992C92.9497 10.12 94.4137 8.848 96.2137 8.848C98.0137 8.848 99.4057 10.12 99.4057 11.992C99.4057 13.816 98.0617 15.088 96.2137 15.088ZM110.723 5.608C107.939 5.608 105.683 7 104.915 9.16L108.011 10.648C108.395 9.472 109.451 8.728 110.723 8.728C111.923 8.728 112.739 9.376 112.739 10.36V10.792L108.635 11.656C105.971 12.208 104.435 13.48 104.435 15.424C104.435 17.608 106.307 19.288 109.283 19.288C110.795 19.288 111.995 18.832 112.979 17.8V19H116.339V10.36C116.339 7.552 114.059 5.608 110.723 5.608ZM109.835 16.648C108.803 16.648 108.155 16.168 108.155 15.376C108.155 14.776 108.539 14.32 109.283 14.152L112.739 13.384V14.008C112.739 15.472 111.467 16.648 109.835 16.648ZM123.321 19.288C126.465 19.288 128.649 17.632 128.649 15.208C128.649 13.336 127.401 11.992 125.073 11.368L122.649 10.72C122.217 10.6 121.305 10.36 121.305 9.568C121.305 8.896 121.929 8.488 122.985 8.488C124.401 8.488 125.529 9.16 125.961 10.288L128.649 9.04C127.809 6.904 125.673 5.608 122.985 5.608C119.913 5.608 117.825 7.264 117.825 9.688C117.825 11.488 118.977 12.88 121.353 13.504L123.657 14.104C124.113 14.224 125.169 14.488 125.169 15.352C125.169 16.072 124.449 16.528 123.321 16.528C121.833 16.528 120.657 15.736 119.961 14.272L117.297 15.52C118.113 17.896 120.465 19.288 123.321 19.288Z" fill="black"/>
</svg>
