<svg width="80" height="80" viewBox="0 0 80 80" fill="none" xmlns="http://www.w3.org/2000/svg">
<rect width="80" height="80" rx="40" fill="#22AD80"/>
<path d="M33.7808 24.2272C31.7518 22.5267 28.7288 22.7712 27.1893 24.9248C26.7782 25.5 26.2909 26.1862 25.4493 27.2389C22.5542 30.8604 22.5542 36.1042 25.4653 39.7128C27.6143 42.3768 29.8676 45.0648 32.3864 47.5837C34.9052 50.1025 37.5933 52.3556 40.2573 54.5048C43.8659 57.4159 49.1097 57.4159 52.7312 54.5208C53.8543 53.6228 54.5552 53.1336 55.15 52.7088C57.2303 51.223 57.5217 48.309 55.8974 46.3351C54.6137 44.7753 53.1843 43.2872 51.8054 41.8346C50.7072 40.6775 48.8726 40.6019 47.626 41.5976C47.2907 41.8653 46.8743 42.2183 46.0302 43.0096C41.8877 40.5481 39.3771 38.0068 36.9605 33.9399C37.7614 33.0855 38.1147 32.668 38.3848 32.3294C39.3787 31.0837 39.3049 29.2541 38.1409 28.1656C36.7223 26.839 35.2786 25.4824 33.7808 24.2272Z" fill="#2CE0A6"/>
<path d="M33.7808 24.2272C31.7518 22.5267 28.7288 22.7712 27.1893 24.9248C26.7782 25.5 26.2909 26.1862 25.4493 27.2389C22.5542 30.8604 22.5542 36.1042 25.4653 39.7128C27.6143 42.3768 29.8676 45.0648 32.3864 47.5837C34.9052 50.1025 37.5933 52.3556 40.2573 54.5048C43.8659 57.4159 49.1097 57.4159 52.7312 54.5208C53.8543 53.6228 54.5552 53.1336 55.15 52.7088C57.2303 51.223 57.5217 48.309 55.8974 46.3351C54.6137 44.7753 53.1843 43.2872 51.8054 41.8346C50.7072 40.6775 48.8726 40.6019 47.626 41.5976C47.2907 41.8653 46.8743 42.2183 46.0302 43.0096C41.8877 40.5481 39.3771 38.0068 36.9605 33.9399C37.7614 33.0855 38.1147 32.668 38.3848 32.3294C39.3787 31.0837 39.3049 29.2541 38.1409 28.1656C36.7223 26.839 35.2786 25.4824 33.7808 24.2272Z" stroke="#187A5B" stroke-width="2.85714" stroke-linejoin="round"/>
</svg>
