<svg width="80" height="80" viewBox="0 0 80 80" fill="none" xmlns="http://www.w3.org/2000/svg">
<rect width="80" height="80" rx="40" fill="#FFA400"/>
<path d="M23.1467 45.8303C23.3642 47.285 24.6248 48.3704 26.095 48.3264C30.6003 48.1916 35.19 48.0182 40 48.0182C44.7911 48.0182 49.3817 48.1269 53.8608 48.2936C55.3497 48.349 56.6394 47.2591 56.86 45.7858C57.3211 42.7064 57.8571 39.4981 57.8571 36.2017C57.8571 32.9168 57.3248 29.7194 56.8648 26.6499C56.642 25.1633 55.3311 24.0702 53.8294 24.1333C49.4011 24.3193 44.7686 24.3852 40 24.3852C35.212 24.3852 30.579 24.2555 26.1255 24.0997C24.6424 24.0478 23.3617 25.1363 23.1421 26.6039C22.6805 29.6875 22.1428 32.9004 22.1428 36.2017C22.1428 39.514 22.6841 42.7374 23.1467 45.8303Z" fill="#FFC866"/>
<path d="M23.1467 45.8303C23.3642 47.285 24.6248 48.3704 26.095 48.3264C30.6003 48.1916 35.19 48.0182 40 48.0182C44.7911 48.0182 49.3817 48.1269 53.8608 48.2936C55.3497 48.349 56.6394 47.2591 56.86 45.7858C57.3211 42.7064 57.8571 39.4981 57.8571 36.2017C57.8571 32.9168 57.3248 29.7194 56.8648 26.6499C56.642 25.1633 55.3311 24.0702 53.8294 24.1333C49.4011 24.3193 44.7686 24.3852 40 24.3852C35.212 24.3852 30.579 24.2555 26.1255 24.0997C24.6424 24.0478 23.3617 25.1363 23.1421 26.6039C22.6805 29.6875 22.1428 32.9004 22.1428 36.2017C22.1428 39.514 22.6841 42.7374 23.1467 45.8303Z" stroke="#CC8300" stroke-width="2.85714"/>
<path d="M32.8809 56.7505H47.1189" stroke="#CC8300" stroke-width="2.85714" stroke-linecap="round"/>
<path d="M40 48.0256V56.7503" stroke="#CC8300" stroke-width="2.85714" stroke-linecap="round"/>
</svg>
